<svg width="32" height="32" viewBox="0 0 32 32" fill="none" xmlns="http://www.w3.org/2000/svg">
<path opacity="0.2" d="M16 16.1372V29.0009C15.832 29.0002 15.667 28.9573 15.52 28.8759L4.52 22.8559C4.36293 22.77 4.23181 22.6435 4.14035 22.4895C4.04888 22.3356 4.00041 22.16 4 21.9809V10.0259C4.00005 9.88504 4.02986 9.74575 4.0875 9.61719L16 16.1372Z" fill="url(#paint0_linear_15688_117712)"/>
<path d="M27.96 8.26828L16.96 2.24953C16.6661 2.08714 16.3358 2.00195 16 2.00195C15.6642 2.00195 15.3339 2.08714 15.04 2.24953L4.04 8.27078C3.72586 8.44267 3.46363 8.69573 3.28069 9.00357C3.09775 9.3114 3.00081 9.6627 3 10.0208V21.9758C3.00081 22.3339 3.09775 22.6852 3.28069 22.993C3.46363 23.3008 3.72586 23.5539 4.04 23.7258L15.04 29.747C15.3339 29.9094 15.6642 29.9946 16 29.9946C16.3358 29.9946 16.6661 29.9094 16.96 29.747L27.96 23.7258C28.2741 23.5539 28.5364 23.3008 28.7193 22.993C28.9023 22.6852 28.9992 22.3339 29 21.9758V10.022C28.9999 9.66331 28.9032 9.31123 28.7203 9.00268C28.5373 8.69413 28.2747 8.44047 27.96 8.26828ZM16 3.99953L26.0425 9.49953L16 14.9995L5.9575 9.49953L16 3.99953ZM5 11.2495L15 16.722V27.4458L5 21.977V11.2495ZM17 27.4458V16.727L27 11.2495V21.972L17 27.4458Z" fill="url(#paint1_linear_15688_117712)"/>
<defs>
<linearGradient id="paint0_linear_15688_117712" x1="4" y1="9.61719" x2="21.3504" y2="20.3584" gradientUnits="userSpaceOnUse">
<stop stop-color="#FB5012"/>
<stop offset="1" stop-color="#D72483"/>
</linearGradient>
<linearGradient id="paint1_linear_15688_117712" x1="3" y1="2.00195" x2="30.9165" y2="27.9312" gradientUnits="userSpaceOnUse">
<stop stop-color="#FB5012"/>
<stop offset="1" stop-color="#D72483"/>
</linearGradient>
</defs>
</svg>
